<svg width="59" height="46" viewBox="0 0 59 46" fill="none" xmlns="http://www.w3.org/2000/svg">
<path d="M57.2353 0.610156C56.5735 0.201925 55.7922 -0.0107838 54.9957 0.000420967C46.546 0.0349342 40.2346 1.00246 35.7192 2.99157C34.2627 3.61802 32.9045 4.42211 31.6811 5.38219C31.4672 5.55424 31.2957 5.76646 31.1782 6.00457C31.0607 6.24269 31 6.5012 31 6.76272V45.5476C30.9999 45.6366 31.0284 45.7237 31.0819 45.7979C31.1354 45.8721 31.2115 45.9301 31.3007 45.9646C31.3899 45.9992 31.4881 46.0087 31.5832 45.992C31.6782 45.9753 31.7657 45.9332 31.8348 45.8709C35.043 42.9372 40.6733 40.4845 55.0007 40.4856C56.0614 40.4856 57.0786 40.0978 57.8286 39.4074C58.5786 38.717 59 37.7806 59 36.8042V3.67148C59.0015 3.06707 58.8412 2.47162 58.5335 1.93772C58.2257 1.40381 57.7799 0.947871 57.2353 0.610156Z" fill="#0C1A47"/>
<path d="M23.28 2.98987C18.7637 1.00643 12.4513 0.0348275 4 0.000332889C3.20297 -0.0096279 2.42157 0.20416 1.76001 0.613187C1.21699 0.950808 0.772488 1.406 0.465593 1.93872C0.158698 2.47144 -0.00118545 3.06537 6.61732e-06 3.66826V36.5646C6.61732e-06 38.7884 1.72001 40.466 4 40.466C12.8838 40.466 21.795 41.2294 27.1325 45.8701C27.2055 45.9339 27.2973 45.9765 27.3964 45.9927C27.4956 46.0089 27.5977 45.998 27.6901 45.9612C27.7825 45.9245 27.8612 45.8635 27.9163 45.786C27.9714 45.7085 28.0005 45.6178 28 45.5252V6.76358C28.0002 6.50206 27.9394 6.24354 27.8216 6.0055C27.7039 5.76746 27.532 5.55545 27.3175 5.38379C26.0949 4.42235 24.7368 3.61711 23.28 2.98987Z" fill="#0C1A47"/>
</svg>
