<svg width="51" height="50" viewBox="0 0 51 50" fill="none" xmlns="http://www.w3.org/2000/svg">
<path d="M14.0504 27.1417H33.3229L27.4241 34.3039C27.2875 34.47 27.1847 34.6617 27.1214 34.868C27.0581 35.0743 27.0356 35.2912 27.0552 35.5062C27.0948 35.9406 27.3035 36.3413 27.6354 36.6201C27.9672 36.899 28.395 37.0331 28.8247 36.993C29.2544 36.953 29.6508 36.742 29.9266 36.4066L38.0516 26.5503C38.1063 26.4719 38.1552 26.3896 38.1979 26.3039C38.1979 26.2218 38.2791 26.1725 38.3116 26.0903C38.3853 25.902 38.4238 25.7015 38.4254 25.499C38.4238 25.2964 38.3853 25.0959 38.3116 24.9076C38.3116 24.8255 38.2304 24.7762 38.1979 24.694C38.1552 24.6084 38.1063 24.526 38.0516 24.4476L29.9266 14.5914C29.7738 14.4059 29.5825 14.2568 29.3662 14.1546C29.15 14.0524 28.9141 13.9996 28.6754 14C28.2957 13.9993 27.9277 14.1329 27.6354 14.3778C27.4708 14.5157 27.3348 14.6851 27.2351 14.8762C27.1354 15.0673 27.074 15.2765 27.0544 15.4916C27.0347 15.7068 27.0573 15.9237 27.1207 16.1301C27.1842 16.3364 27.2873 16.5281 27.4241 16.694L33.3229 23.8563H14.0504C13.6194 23.8563 13.2061 24.0293 12.9013 24.3374C12.5966 24.6455 12.4254 25.0633 12.4254 25.499C12.4254 25.9346 12.5966 26.3525 12.9013 26.6605C13.2061 26.9686 13.6194 27.1417 14.0504 27.1417Z" fill="white"/>
</svg>
