<svg width="39" height="55" viewBox="0 0 39 55" fill="none" xmlns="http://www.w3.org/2000/svg">
<path d="M26.7053 41.9375C25.674 41.9375 24.9865 41.5938 23.9553 41.25L19.8303 39.5312L15.7053 41.25C15.0178 41.5938 13.9865 41.9375 12.9553 41.9375C12.2678 41.9375 11.924 41.9375 11.2365 41.5938L9.51779 55L19.8303 48.125L30.1428 55L28.0803 41.5938C27.7365 41.9375 27.049 41.9375 26.7053 41.9375Z" fill="#121A33"/>
<path d="M36.674 20.2812C36.3303 19.5938 36.3303 18.5625 36.674 17.875L38.7365 13.75C39.424 12.375 38.7365 10.6562 37.0178 9.96875L32.549 8.25C31.8615 7.90625 31.174 7.21875 30.8303 6.53125L29.1115 2.0625C28.7678 0.6875 27.7365 0 26.7053 0C26.3615 0 25.674 0 25.3303 0.34375L20.8615 2.40625C20.5178 2.40625 20.174 2.40625 19.8303 2.40625C19.4865 2.40625 19.1428 2.40625 18.799 2.0625L14.3303 0.34375C13.9865 0 13.299 0 12.9553 0C11.924 0 10.8928 0.6875 10.2053 1.71875L8.48654 6.53125C8.48654 7.21875 7.79904 7.90625 7.11154 8.25L2.29904 9.96875C0.924037 10.3125 0.236537 12.0312 0.924037 13.75L2.98654 18.2188C3.33029 18.9062 3.33029 19.9375 2.98654 20.625L0.924037 24.75C0.236537 26.125 0.924037 27.8438 2.64279 28.5312L7.11154 30.25C7.79904 30.5938 8.48654 31.2812 8.83029 31.9688L10.549 36.4375C10.8928 37.8125 11.924 38.5 12.9553 38.5C13.299 38.5 13.6428 38.5 13.9865 38.1562L18.4553 36.0938C18.799 36.0938 19.1428 35.75 19.4865 35.75C19.8303 35.75 20.174 35.75 20.5178 36.0938L24.9865 38.1562C25.3303 38.5 25.674 38.5 26.0178 38.5C27.049 38.5 28.0803 37.8125 28.7678 36.7812L30.4865 32.3125C30.8303 31.625 31.5178 30.9375 32.2053 30.5937L36.674 28.875C38.049 28.1875 39.0803 26.4688 38.3928 25.0938L36.674 20.2812ZM19.8303 33C12.2678 33 6.08029 26.8125 6.08029 19.25C6.08029 11.6875 12.2678 5.5 19.8303 5.5C27.3928 5.5 33.5803 11.6875 33.5803 19.25C33.5803 26.8125 27.3928 33 19.8303 33Z" fill="#121A33"/>
<path d="M30.1428 19.2502C30.1428 24.9462 25.5262 29.5627 19.8303 29.5627C14.1344 29.5627 9.51779 24.9462 9.51779 19.2502C9.51779 13.5543 14.1344 8.93774 19.8303 8.93774C25.5262 8.93774 30.1428 13.5543 30.1428 19.2502Z" fill="#121A33"/>
</svg>
