<svg width="123" height="20" viewBox="0 0 123 20" fill="none" xmlns="http://www.w3.org/2000/svg">
<path d="M20.4242 7.5743C20.3599 7.38759 20.243 7.2236 20.0876 7.10221C19.9323 6.98082 19.7451 6.90724 19.5488 6.8904L13.7569 6.04319L11.1612 0.765992C11.0778 0.593416 10.9477 0.447872 10.7856 0.346035C10.6236 0.244198 10.4362 0.190186 10.245 0.190186C10.0538 0.190186 9.86644 0.244198 9.70442 0.346035C9.54239 0.447872 9.41225 0.593416 9.32889 0.765992L6.7332 6.03299L0.941224 6.8904C0.752829 6.91725 0.575713 6.99652 0.429973 7.11921C0.284234 7.2419 0.175706 7.40309 0.116708 7.5845C0.062702 7.76178 0.0578556 7.95045 0.102689 8.13028C0.147522 8.31011 0.240342 8.4743 0.371188 8.60524L4.5752 12.6882L3.55728 18.486C3.52094 18.6773 3.53997 18.8751 3.61212 19.056C3.68427 19.2369 3.80652 19.3932 3.96445 19.5067C4.11838 19.617 4.29993 19.6822 4.48873 19.6948C4.67753 19.7074 4.86609 19.667 5.03327 19.5781L10.245 16.8528L15.4364 19.5883C15.5793 19.6692 15.7406 19.7114 15.9047 19.7108C16.1203 19.7116 16.3306 19.6437 16.5052 19.5169C16.6632 19.4035 16.7854 19.2471 16.8576 19.0662C16.9297 18.8853 16.9487 18.6875 16.9124 18.4962L15.8945 12.6984L20.0985 8.61545C20.2455 8.49059 20.3541 8.32648 20.4118 8.14218C20.4694 7.95788 20.4737 7.76096 20.4242 7.5743ZM14.164 11.6572C14.0446 11.773 13.9553 11.9163 13.9039 12.0747C13.8524 12.233 13.8404 12.4016 13.8688 12.5657L14.6017 16.8426L10.7743 14.8011C10.6271 14.7225 10.4628 14.6813 10.2959 14.6813C10.1291 14.6813 9.96477 14.7225 9.8175 14.8011L5.99011 16.8426L6.72302 12.5657C6.75145 12.4016 6.73942 12.233 6.68796 12.0747C6.63651 11.9163 6.5472 11.773 6.42782 11.6572L3.37406 8.59503L7.6595 7.97238C7.82441 7.94938 7.98116 7.88617 8.11604 7.78829C8.25092 7.69042 8.35979 7.56086 8.43312 7.41098L10.245 3.52198L12.1587 7.42119C12.232 7.57107 12.3409 7.70062 12.4758 7.7985C12.6107 7.89638 12.7674 7.95959 12.9323 7.98259L17.2178 8.60524L14.164 11.6572Z" fill="#051960"/>
<path d="M45.8158 7.5743C45.7515 7.38759 45.6345 7.2236 45.4792 7.10221C45.3238 6.98082 45.1366 6.90724 44.9403 6.8904L39.1484 6.04319L36.5527 0.765992C36.4693 0.593416 36.3392 0.447872 36.1772 0.346035C36.0151 0.244198 35.8278 0.190186 35.6365 0.190186C35.4453 0.190186 35.258 0.244198 35.0959 0.346035C34.9339 0.447872 34.8038 0.593416 34.7204 0.765992L32.1247 6.03299L26.3327 6.8904C26.1444 6.91725 25.9672 6.99652 25.8215 7.11921C25.6758 7.2419 25.5672 7.40309 25.5082 7.5845C25.4542 7.76178 25.4494 7.95045 25.4942 8.13028C25.539 8.31011 25.6319 8.4743 25.7627 8.60524L29.9667 12.6882L28.9488 18.486C28.9125 18.6773 28.9315 18.8751 29.0036 19.056C29.0758 19.2369 29.198 19.3932 29.356 19.5067C29.5099 19.617 29.6915 19.6822 29.8803 19.6948C30.0691 19.7074 30.2576 19.667 30.4248 19.5781L35.6365 16.8528L40.8279 19.5883C40.9708 19.6692 41.1322 19.7114 41.2962 19.7108C41.5118 19.7116 41.7221 19.6437 41.8968 19.5169C42.0547 19.4035 42.1769 19.2471 42.2491 19.0662C42.3212 18.8853 42.3403 18.6875 42.3039 18.4962L41.286 12.6984L45.49 8.61545C45.637 8.49059 45.7456 8.32648 45.8033 8.14218C45.8609 7.95788 45.8653 7.76096 45.8158 7.5743ZM39.5555 11.6572C39.4362 11.773 39.3469 11.9163 39.2954 12.0747C39.2439 12.233 39.2319 12.4016 39.2603 12.5657L39.9933 16.8426L36.1659 14.8011C36.0186 14.7225 35.8543 14.6813 35.6874 14.6813C35.5206 14.6813 35.3563 14.7225 35.209 14.8011L31.3816 16.8426L32.1145 12.5657C32.143 12.4016 32.1309 12.233 32.0795 12.0747C32.028 11.9163 31.9387 11.773 31.8193 11.6572L28.7656 8.59503L33.051 7.97238C33.2159 7.94938 33.3727 7.88617 33.5076 7.78829C33.6424 7.69042 33.7513 7.56086 33.8246 7.41098L35.6365 3.52198L37.5502 7.42119C37.6236 7.57107 37.7324 7.70062 37.8673 7.7985C38.0022 7.89638 38.159 7.95959 38.3239 7.98259L42.6093 8.60524L39.5555 11.6572Z" fill="#051960"/>
<path d="M71.2073 7.5743C71.143 7.38759 71.0261 7.2236 70.8707 7.10221C70.7153 6.98082 70.5281 6.90724 70.3319 6.8904L64.5399 6.04319L61.9442 0.765992C61.8608 0.593416 61.7307 0.447872 61.5687 0.346035C61.4067 0.244198 61.2193 0.190186 61.0281 0.190186C60.8368 0.190186 60.6495 0.244198 60.4875 0.346035C60.3254 0.447872 60.1953 0.593416 60.1119 0.765992L57.5162 6.03299L51.7243 6.8904C51.5359 6.91725 51.3588 6.99652 51.213 7.11921C51.0673 7.2419 50.9588 7.40309 50.8998 7.5845C50.8458 7.76178 50.8409 7.95045 50.8857 8.13028C50.9306 8.31011 51.0234 8.4743 51.1542 8.60524L55.3583 12.6882L54.3403 18.486C54.304 18.6773 54.323 18.8751 54.3952 19.056C54.4673 19.2369 54.5896 19.3932 54.7475 19.5067C54.9014 19.617 55.083 19.6822 55.2718 19.6948C55.4606 19.7074 55.6491 19.667 55.8163 19.5781L61.0281 16.8528L66.2195 19.5883C66.3623 19.6692 66.5237 19.7114 66.6877 19.7108C66.9033 19.7116 67.1136 19.6437 67.2883 19.5169C67.4462 19.4035 67.5685 19.2471 67.6406 19.0662C67.7128 18.8853 67.7318 18.6875 67.6955 18.4962L66.6775 12.6984L70.8815 8.61545C71.0285 8.49059 71.1371 8.32648 71.1948 8.14218C71.2525 7.95788 71.2568 7.76096 71.2073 7.5743ZM64.9471 11.6572C64.8277 11.773 64.7384 11.9163 64.6869 12.0747C64.6355 12.233 64.6234 12.4016 64.6519 12.5657L65.3848 16.8426L61.5574 14.8011C61.4101 14.7225 61.2458 14.6813 61.079 14.6813C60.9121 14.6813 60.7478 14.7225 60.6005 14.8011L56.7732 16.8426L57.5061 12.5657C57.5345 12.4016 57.5225 12.233 57.471 12.0747C57.4196 11.9163 57.3302 11.773 57.2109 11.6572L54.1571 8.59503L58.4426 7.97238C58.6075 7.94938 58.7642 7.88617 58.8991 7.78829C59.034 7.69042 59.1428 7.56086 59.2162 7.41098L61.0281 3.52198L62.9418 7.42119C63.0151 7.57107 63.124 7.70062 63.2588 7.7985C63.3937 7.89638 63.5505 7.95959 63.7154 7.98259L68.0008 8.60524L64.9471 11.6572Z" fill="#051960"/>
<path d="M96.5988 7.5743C96.5345 7.38759 96.4176 7.2236 96.2622 7.10221C96.1068 6.98082 95.9197 6.90724 95.7234 6.8904L89.9314 6.04319L87.3357 0.765992C87.2524 0.593416 87.1222 0.447872 86.9602 0.346035C86.7982 0.244198 86.6108 0.190186 86.4196 0.190186C86.2284 0.190186 86.041 0.244198 85.879 0.346035C85.717 0.447872 85.5868 0.593416 85.5035 0.765992L82.9078 6.03299L77.1158 6.8904C76.9274 6.91725 76.7503 6.99652 76.6045 7.11921C76.4588 7.2419 76.3503 7.40309 76.2913 7.5845C76.2373 7.76178 76.2324 7.95045 76.2773 8.13028C76.3221 8.31011 76.4149 8.4743 76.5458 8.60524L80.7498 12.6882L79.7319 18.486C79.6955 18.6773 79.7145 18.8751 79.7867 19.056C79.8588 19.2369 79.9811 19.3932 80.139 19.5067C80.293 19.617 80.4745 19.6822 80.6633 19.6948C80.8521 19.7074 81.0407 19.667 81.2078 19.5781L86.4196 16.8528L91.611 19.5883C91.7539 19.6692 91.9152 19.7114 92.0792 19.7108C92.2949 19.7116 92.5052 19.6437 92.6798 19.5169C92.8377 19.4035 92.96 19.2471 93.0321 19.0662C93.1043 18.8853 93.1233 18.6875 93.087 18.4962L92.0691 12.6984L96.2731 8.61545C96.42 8.49059 96.5287 8.32648 96.5863 8.14218C96.644 7.95788 96.6483 7.76096 96.5988 7.5743ZM90.3386 11.6572C90.2192 11.773 90.1299 11.9163 90.0785 12.0747C90.027 12.233 90.015 12.4016 90.0434 12.5657L90.7763 16.8426L86.9489 14.8011C86.8016 14.7225 86.6373 14.6813 86.4705 14.6813C86.3036 14.6813 86.1393 14.7225 85.9921 14.8011L82.1647 16.8426L82.8976 12.5657C82.926 12.4016 82.914 12.233 82.8625 12.0747C82.8111 11.9163 82.7218 11.773 82.6024 11.6572L79.5486 8.59503L83.8341 7.97238C83.999 7.94938 84.1557 7.88617 84.2906 7.78829C84.4255 7.69042 84.5344 7.56086 84.6077 7.41098L86.4196 3.52198L88.3333 7.42119C88.4066 7.57107 88.5155 7.70062 88.6504 7.7985C88.7852 7.89638 88.942 7.95959 89.1069 7.98259L93.3924 8.60524L90.3386 11.6572Z" fill="#051960"/>
<path d="M121.99 7.5743C121.926 7.38759 121.809 7.2236 121.654 7.10221C121.498 6.98082 121.311 6.90724 121.115 6.8904L115.323 6.04319L112.727 0.765992C112.644 0.593416 112.514 0.447872 112.352 0.346035C112.19 0.244198 112.002 0.190186 111.811 0.190186C111.62 0.190186 111.433 0.244198 111.271 0.346035C111.109 0.447872 110.978 0.593416 110.895 0.765992L108.299 6.03299L102.507 6.8904C102.319 6.91725 102.142 6.99652 101.996 7.11921C101.85 7.2419 101.742 7.40309 101.683 7.5845C101.629 7.76178 101.624 7.95045 101.669 8.13028C101.714 8.31011 101.806 8.4743 101.937 8.60524L106.141 12.6882L105.123 18.486C105.087 18.6773 105.106 18.8751 105.178 19.056C105.25 19.2369 105.373 19.3932 105.531 19.5067C105.684 19.617 105.866 19.6822 106.055 19.6948C106.244 19.7074 106.432 19.667 106.599 19.5781L111.811 16.8528L117.003 19.5883C117.145 19.6692 117.307 19.7114 117.471 19.7108C117.686 19.7116 117.897 19.6437 118.071 19.5169C118.229 19.4035 118.352 19.2471 118.424 19.0662C118.496 18.8853 118.515 18.6875 118.479 18.4962L117.461 12.6984L121.665 8.61545C121.812 8.49059 121.92 8.32648 121.978 8.14218C122.036 7.95788 122.04 7.76096 121.99 7.5743ZM115.73 11.6572C115.611 11.773 115.521 11.9163 115.47 12.0747C115.419 12.233 115.407 12.4016 115.435 12.5657L116.168 16.8426L112.34 14.8011C112.193 14.7225 112.029 14.6813 111.862 14.6813C111.695 14.6813 111.531 14.7225 111.384 14.8011L107.556 16.8426L108.289 12.5657C108.318 12.4016 108.306 12.233 108.254 12.0747C108.203 11.9163 108.113 11.773 107.994 11.6572L104.94 8.59503L109.226 7.97238C109.391 7.94938 109.547 7.88617 109.682 7.78829C109.817 7.69042 109.926 7.56086 109.999 7.41098L111.811 3.52198L113.725 7.42119C113.798 7.57107 113.907 7.70062 114.042 7.7985C114.177 7.89638 114.334 7.95959 114.498 7.98259L118.784 8.60524L115.73 11.6572Z" fill="#051960"/>
</svg>
