<svg width="125" height="19" viewBox="0 0 125 19" fill="none" xmlns="http://www.w3.org/2000/svg">
<path d="M21.4658 7.33525C21.4006 7.15663 21.2821 6.99975 21.1245 6.88362C20.967 6.76748 20.7772 6.6971 20.5783 6.68099L14.706 5.87049L12.0744 0.821973C11.9899 0.656875 11.8579 0.517638 11.6936 0.420214C11.5294 0.32279 11.3394 0.271118 11.1456 0.271118C10.9517 0.271118 10.7617 0.32279 10.5975 0.420214C10.4332 0.517638 10.3012 0.656875 10.2167 0.821973L7.58507 5.86073L1.71285 6.68099C1.52184 6.70668 1.34227 6.78251 1.19451 6.89988C1.04675 7.01725 0.936722 7.17146 0.876906 7.34501C0.822152 7.5146 0.817238 7.6951 0.862692 7.86714C0.908147 8.03918 1.00225 8.19625 1.13491 8.32151L5.39717 12.2275L4.36515 17.7741C4.32831 17.9571 4.3476 18.1464 4.42075 18.3194C4.49389 18.4924 4.61785 18.642 4.77796 18.7506C4.93402 18.8561 5.11809 18.9184 5.3095 18.9305C5.50092 18.9426 5.6921 18.9039 5.86159 18.8189L11.1456 16.2117L16.4089 18.8287C16.5537 18.906 16.7173 18.9464 16.8836 18.9459C17.1022 18.9466 17.3154 18.8816 17.4925 18.7603C17.6526 18.6518 17.7766 18.5022 17.8497 18.3292C17.9229 18.1561 17.9422 17.9669 17.9053 17.7838L16.8733 12.2373L21.1356 8.33128C21.2846 8.21183 21.3947 8.05483 21.4531 7.87852C21.5116 7.70221 21.516 7.51382 21.4658 7.33525ZM15.1188 11.2413C14.9978 11.352 14.9073 11.4891 14.8551 11.6406C14.8029 11.7921 14.7907 11.9534 14.8196 12.1103L15.5626 16.2019L11.6822 14.2489C11.5329 14.1737 11.3663 14.1343 11.1972 14.1343C11.028 14.1343 10.8614 14.1737 10.7121 14.2489L6.83169 16.2019L7.57475 12.1103C7.60358 11.9534 7.59138 11.7921 7.53921 11.6406C7.48704 11.4891 7.39649 11.352 7.27546 11.2413L4.17939 8.31175L8.52421 7.71608C8.6914 7.69408 8.85033 7.63361 8.98707 7.53997C9.12382 7.44633 9.2342 7.32239 9.30855 7.17901L11.1456 3.45853L13.0858 7.18877C13.1601 7.33216 13.2705 7.4561 13.4072 7.54974C13.544 7.64337 13.7029 7.70384 13.8701 7.72585L18.2149 8.32151L15.1188 11.2413Z" fill="#051960"/>
<path d="M47.2091 7.33512C47.1439 7.15651 47.0254 6.99962 46.8679 6.88349C46.7103 6.76736 46.5206 6.69697 46.3216 6.68087L40.4494 5.87037L37.8177 0.821851C37.7332 0.656753 37.6012 0.517516 37.437 0.420092C37.2727 0.322668 37.0827 0.270996 36.8889 0.270996C36.695 0.270996 36.5051 0.322668 36.3408 0.420092C36.1765 0.517516 36.0446 0.656753 35.9601 0.821851L33.3284 5.8606L27.4562 6.68087C27.2652 6.70655 27.0856 6.78239 26.9378 6.89976C26.7901 7.01713 26.68 7.17134 26.6202 7.34489C26.5655 7.51448 26.5606 7.69498 26.606 7.86702C26.6515 8.03905 26.7456 8.19613 26.8782 8.32139L31.1405 12.2274L30.1085 17.7739C30.0716 17.957 30.0909 18.1462 30.1641 18.3193C30.2372 18.4923 30.3612 18.6419 30.5213 18.7504C30.6773 18.856 30.8614 18.9183 31.0528 18.9304C31.2442 18.9425 31.4354 18.9038 31.6049 18.8188L36.8889 16.2115L42.1522 18.8286C42.297 18.9059 42.4606 18.9463 42.6269 18.9457C42.8455 18.9465 43.0588 18.8815 43.2358 18.7602C43.3959 18.6517 43.5199 18.5021 43.593 18.329C43.6662 18.156 43.6855 17.9668 43.6486 17.7837L42.6166 12.2372L46.8789 8.33116C47.0279 8.21171 47.138 8.05471 47.1965 7.8784C47.2549 7.70209 47.2593 7.5137 47.2091 7.33512ZM40.8622 11.2411C40.7411 11.3519 40.6506 11.489 40.5984 11.6405C40.5463 11.792 40.5341 11.9532 40.5629 12.1102L41.3059 16.2018L37.4255 14.2488C37.2762 14.1735 37.1096 14.1342 36.9405 14.1342C36.7713 14.1342 36.6047 14.1735 36.4554 14.2488L32.575 16.2018L33.3181 12.1102C33.3469 11.9532 33.3347 11.792 33.2825 11.6405C33.2304 11.489 33.1398 11.3519 33.0188 11.2411L29.9227 8.31163L34.2675 7.71596C34.4347 7.69396 34.5937 7.63348 34.7304 7.53985C34.8671 7.44621 34.9775 7.32227 35.0519 7.17888L36.8889 3.45841L38.8291 7.18865C38.9034 7.33204 39.0138 7.45598 39.1506 7.54961C39.2873 7.64325 39.4462 7.70372 39.6134 7.72572L43.9582 8.32139L40.8622 11.2411Z" fill="#051960"/>
<path d="M72.9525 7.33512C72.8873 7.15651 72.7688 6.99962 72.6112 6.88349C72.4537 6.76736 72.2639 6.69697 72.065 6.68087L66.1927 5.87037L63.5611 0.821851C63.4766 0.656753 63.3446 0.517516 63.1803 0.420092C63.0161 0.322668 62.8261 0.270996 62.6322 0.270996C62.4384 0.270996 62.2484 0.322668 62.0842 0.420092C61.9199 0.517516 61.7879 0.656753 61.7034 0.821851L59.0718 5.8606L53.1995 6.68087C53.0085 6.70655 52.829 6.78239 52.6812 6.89976C52.5334 7.01713 52.4234 7.17134 52.3636 7.34489C52.3088 7.51448 52.3039 7.69498 52.3494 7.86702C52.3948 8.03905 52.4889 8.19613 52.6216 8.32139L56.8839 12.2274L55.8518 17.7739C55.815 17.957 55.8343 18.1462 55.9074 18.3193C55.9806 18.4923 56.1045 18.6419 56.2647 18.7504C56.4207 18.856 56.6048 18.9183 56.7962 18.9304C56.9876 18.9425 57.1788 18.9038 57.3483 18.8188L62.6322 16.2115L67.8956 18.8286C68.0404 18.9059 68.204 18.9463 68.3703 18.9457C68.5889 18.9465 68.8021 18.8815 68.9792 18.7602C69.1393 18.6517 69.2633 18.5021 69.3364 18.329C69.4096 18.156 69.4289 17.9668 69.392 17.7837L68.36 12.2372L72.6222 8.33116C72.7713 8.21171 72.8814 8.05471 72.9398 7.8784C72.9983 7.70209 73.0027 7.5137 72.9525 7.33512ZM66.6055 11.2411C66.4845 11.3519 66.394 11.489 66.3418 11.6405C66.2896 11.792 66.2774 11.9532 66.3063 12.1102L67.0493 16.2018L63.1689 14.2488C63.0196 14.1735 62.853 14.1342 62.6838 14.1342C62.5147 14.1342 62.3481 14.1735 62.1988 14.2488L58.3184 16.2018L59.0614 12.1102C59.0903 11.9532 59.0781 11.792 59.0259 11.6405C58.9737 11.489 58.8832 11.3519 58.7622 11.2411L55.6661 8.31163L60.0109 7.71596C60.1781 7.69396 60.337 7.63348 60.4738 7.53985C60.6105 7.44621 60.7209 7.32227 60.7952 7.17888L62.6322 3.45841L64.5725 7.18865C64.6468 7.33204 64.7572 7.45598 64.8939 7.54961C65.0307 7.64325 65.1896 7.70372 65.3568 7.72572L69.7016 8.32139L66.6055 11.2411Z" fill="#051960"/>
<path d="M98.6958 7.33512C98.6306 7.15651 98.5121 6.99962 98.3546 6.88349C98.197 6.76736 98.0072 6.69697 97.8083 6.68087L91.936 5.87037L89.3044 0.821851C89.2199 0.656753 89.0879 0.517516 88.9237 0.420092C88.7594 0.322668 88.5694 0.270996 88.3756 0.270996C88.1817 0.270996 87.9917 0.322668 87.8275 0.420092C87.6632 0.517516 87.5312 0.656753 87.4467 0.821851L84.8151 5.8606L78.9429 6.68087C78.7519 6.70655 78.5723 6.78239 78.4245 6.89976C78.2768 7.01713 78.1667 7.17134 78.1069 7.34489C78.0522 7.51448 78.0472 7.69498 78.0927 7.86702C78.1382 8.03905 78.2323 8.19613 78.3649 8.32139L82.6272 12.2274L81.5952 17.7739C81.5583 17.957 81.5776 18.1462 81.6508 18.3193C81.7239 18.4923 81.8479 18.6419 82.008 18.7504C82.164 18.856 82.3481 18.9183 82.5395 18.9304C82.7309 18.9425 82.9221 18.9038 83.0916 18.8188L88.3756 16.2115L93.6389 18.8286C93.7837 18.9059 93.9473 18.9463 94.1136 18.9457C94.3322 18.9465 94.5454 18.8815 94.7225 18.7602C94.8826 18.6517 95.0066 18.5021 95.0797 18.329C95.1529 18.156 95.1722 17.9668 95.1353 17.7837L94.1033 12.2372L98.3656 8.33116C98.5146 8.21171 98.6247 8.05471 98.6832 7.8784C98.7416 7.70209 98.746 7.5137 98.6958 7.33512ZM92.3489 11.2411C92.2278 11.3519 92.1373 11.489 92.0851 11.6405C92.0329 11.792 92.0207 11.9532 92.0496 12.1102L92.7926 16.2018L88.9122 14.2488C88.7629 14.1735 88.5963 14.1342 88.4272 14.1342C88.258 14.1342 88.0914 14.1735 87.9421 14.2488L84.0617 16.2018L84.8048 12.1102C84.8336 11.9532 84.8214 11.792 84.7692 11.6405C84.7171 11.489 84.6265 11.3519 84.5055 11.2411L81.4094 8.31163L85.7542 7.71596C85.9214 7.69396 86.0803 7.63348 86.2171 7.53985C86.3538 7.44621 86.4642 7.32227 86.5386 7.17888L88.3756 3.45841L90.3158 7.18865C90.3901 7.33204 90.5005 7.45598 90.6372 7.54961C90.774 7.64325 90.9329 7.70372 91.1001 7.72572L95.4449 8.32139L92.3489 11.2411Z" fill="#051960"/>
<path d="M124.439 7.33512C124.374 7.15651 124.255 6.99962 124.098 6.88349C123.94 6.76736 123.751 6.69697 123.552 6.68087L117.679 5.87037L115.048 0.821851C114.963 0.656753 114.831 0.517516 114.667 0.420092C114.503 0.322668 114.313 0.270996 114.119 0.270996C113.925 0.270996 113.735 0.322668 113.571 0.420092C113.407 0.517516 113.275 0.656753 113.19 0.821851L110.558 5.8606L104.686 6.68087C104.495 6.70655 104.316 6.78239 104.168 6.89976C104.02 7.01713 103.91 7.17134 103.85 7.34489C103.796 7.51448 103.791 7.69498 103.836 7.86702C103.882 8.03905 103.976 8.19613 104.108 8.32139L108.371 12.2274L107.339 17.7739C107.302 17.957 107.321 18.1462 107.394 18.3193C107.467 18.4923 107.591 18.6419 107.751 18.7504C107.907 18.856 108.091 18.9183 108.283 18.9304C108.474 18.9425 108.665 18.9038 108.835 18.8188L114.119 16.2115L119.382 18.8286C119.527 18.9059 119.691 18.9463 119.857 18.9457C120.076 18.9465 120.289 18.8815 120.466 18.7602C120.626 18.6517 120.75 18.5021 120.823 18.329C120.896 18.156 120.916 17.9668 120.879 17.7837L119.847 12.2372L124.109 8.33116C124.258 8.21171 124.368 8.05471 124.427 7.8784C124.485 7.70209 124.489 7.5137 124.439 7.33512ZM118.092 11.2411C117.971 11.3519 117.881 11.489 117.828 11.6405C117.776 11.792 117.764 11.9532 117.793 12.1102L118.536 16.2018L114.656 14.2488C114.506 14.1735 114.34 14.1342 114.171 14.1342C114.001 14.1342 113.835 14.1735 113.685 14.2488L109.805 16.2018L110.548 12.1102C110.577 11.9532 110.565 11.792 110.513 11.6405C110.46 11.489 110.37 11.3519 110.249 11.2411L107.153 8.31163L111.498 7.71596C111.665 7.69396 111.824 7.63348 111.96 7.53985C112.097 7.44621 112.208 7.32227 112.282 7.17888L114.119 3.45841L116.059 7.18865C116.133 7.33204 116.244 7.45598 116.381 7.54961C116.517 7.64325 116.676 7.70372 116.843 7.72572L121.188 8.32139L118.092 11.2411Z" fill="#051960"/>
</svg>
