<svg width="123" height="20" viewBox="0 0 123 20" fill="none" xmlns="http://www.w3.org/2000/svg">
<path d="M21.1727 7.86038C21.1085 7.67391 20.9918 7.51013 20.8366 7.38889C20.6814 7.26765 20.4944 7.19417 20.2984 7.17735L14.5138 6.33121L11.9213 1.06068C11.8381 0.888317 11.7081 0.742957 11.5463 0.641248C11.3845 0.53954 11.1974 0.485596 11.0064 0.485596C10.8154 0.485596 10.6283 0.53954 10.4665 0.641248C10.3046 0.742957 10.1747 0.888317 10.0914 1.06068L7.49899 6.32102L1.71433 7.17735C1.52617 7.20417 1.34928 7.28334 1.20372 7.40587C1.05817 7.5284 0.949776 7.68939 0.890852 7.87058C0.836915 8.04763 0.832074 8.23607 0.876851 8.41567C0.921627 8.59527 1.01433 8.75925 1.14501 8.89002L5.34372 12.9678L4.32708 18.7583C4.29079 18.9494 4.30979 19.1469 4.38185 19.3276C4.45391 19.5082 4.57601 19.6644 4.73374 19.7777C4.88747 19.8879 5.06879 19.953 5.25735 19.9656C5.44591 19.9782 5.63424 19.9378 5.8012 19.8491L11.0064 17.1271L16.1912 19.8593C16.3339 19.94 16.4951 19.9821 16.6589 19.9816C16.8742 19.9824 17.0843 19.9145 17.2587 19.7879C17.4164 19.6746 17.5385 19.5184 17.6106 19.3378C17.6826 19.1571 17.7016 18.9596 17.6653 18.7685L16.6487 12.978L20.8474 8.90022C20.9942 8.77552 21.1027 8.61162 21.1603 8.42755C21.2179 8.24348 21.2222 8.04681 21.1727 7.86038ZM14.9204 11.9382C14.8012 12.0538 14.712 12.1969 14.6606 12.3551C14.6092 12.5132 14.5972 12.6816 14.6256 12.8455L15.3576 17.117L11.535 15.0781C11.3879 14.9995 11.2239 14.9584 11.0572 14.9584C10.8906 14.9584 10.7265 14.9995 10.5794 15.0781L6.75684 17.117L7.48882 12.8455C7.51722 12.6816 7.5052 12.5132 7.45381 12.3551C7.40242 12.1969 7.31322 12.0538 7.19399 11.9382L4.14409 8.87983L8.42412 8.25797C8.58882 8.23499 8.74538 8.17186 8.88008 8.07411C9.01479 7.97636 9.12353 7.84696 9.19677 7.69727L11.0064 3.81318L12.9177 7.70747C12.9909 7.85716 13.0996 7.98655 13.2343 8.08431C13.369 8.18206 13.5256 8.24519 13.6903 8.26816L17.9703 8.89002L14.9204 11.9382Z" fill="#051960"/>
<path d="M46.5322 7.86038C46.468 7.67391 46.3513 7.51013 46.1961 7.38889C46.0409 7.26765 45.8539 7.19417 45.6579 7.17735L39.8733 6.33121L37.2808 1.06068C37.1976 0.888317 37.0676 0.742957 36.9058 0.641248C36.744 0.53954 36.5569 0.485596 36.3659 0.485596C36.1749 0.485596 35.9878 0.53954 35.826 0.641248C35.6641 0.742957 35.5342 0.888317 35.4509 1.06068L32.8585 6.32102L27.0738 7.17735C26.8857 7.20417 26.7088 7.28334 26.5632 7.40587C26.4177 7.5284 26.3093 7.68939 26.2503 7.87058C26.1964 8.04763 26.1916 8.23607 26.2363 8.41567C26.2811 8.59527 26.3738 8.75925 26.5045 8.89002L30.7032 12.9678L29.6866 18.7583C29.6503 18.9494 29.6693 19.1469 29.7413 19.3276C29.8134 19.5082 29.9355 19.6644 30.0932 19.7777C30.247 19.8879 30.4283 19.953 30.6168 19.9656C30.8054 19.9782 30.9937 19.9378 31.1607 19.8491L36.3659 17.1271L41.5507 19.8593C41.6934 19.94 41.8545 19.9821 42.0184 19.9816C42.2337 19.9824 42.4438 19.9145 42.6182 19.7879C42.7759 19.6746 42.898 19.5184 42.9701 19.3378C43.0421 19.1571 43.0611 18.9596 43.0248 18.7685L42.0082 12.978L46.2069 8.90022C46.3537 8.77552 46.4622 8.61162 46.5198 8.42755C46.5774 8.24348 46.5817 8.04681 46.5322 7.86038ZM40.2799 11.9382C40.1607 12.0538 40.0715 12.1969 40.0201 12.3551C39.9687 12.5132 39.9567 12.6816 39.9851 12.8455L40.7171 17.117L36.8945 15.0781C36.7474 14.9995 36.5833 14.9584 36.4167 14.9584C36.2501 14.9584 36.086 14.9995 35.9389 15.0781L32.1163 17.117L32.8483 12.8455C32.8767 12.6816 32.8647 12.5132 32.8133 12.3551C32.7619 12.1969 32.6727 12.0538 32.5535 11.9382L29.5036 8.87983L33.7836 8.25797C33.9483 8.23499 34.1049 8.17186 34.2396 8.07411C34.3743 7.97636 34.483 7.84696 34.5563 7.69727L36.3659 3.81318L38.2772 7.70747C38.3504 7.85716 38.4591 7.98655 38.5938 8.08431C38.7285 8.18206 38.8851 8.24519 39.0498 8.26816L43.3298 8.89002L40.2799 11.9382Z" fill="#051960"/>
<path d="M71.8916 7.86038C71.8274 7.67391 71.7106 7.51013 71.5554 7.38889C71.4002 7.26765 71.2133 7.19417 71.0173 7.17735L65.2326 6.33121L62.6402 1.06068C62.557 0.888317 62.427 0.742957 62.2652 0.641248C62.1034 0.53954 61.9162 0.485596 61.7253 0.485596C61.5343 0.485596 61.3471 0.53954 61.1853 0.641248C61.0235 0.742957 60.8935 0.888317 60.8103 1.06068L58.2179 6.32102L52.4332 7.17735C52.245 7.20417 52.0681 7.28334 51.9226 7.40587C51.777 7.5284 51.6686 7.68939 51.6097 7.87058C51.5558 8.04763 51.5509 8.23607 51.5957 8.41567C51.6405 8.59527 51.7332 8.75925 51.8639 8.89002L56.0626 12.9678L55.046 18.7583C55.0097 18.9494 55.0287 19.1469 55.1007 19.3276C55.1728 19.5082 55.2949 19.6644 55.4526 19.7777C55.6063 19.8879 55.7877 19.953 55.9762 19.9656C56.1648 19.9782 56.3531 19.9378 56.5201 19.8491L61.7253 17.1271L66.9101 19.8593C67.0528 19.94 67.2139 19.9821 67.3777 19.9816C67.5931 19.9824 67.8031 19.9145 67.9776 19.7879C68.1353 19.6746 68.2574 19.5184 68.3294 19.3378C68.4015 19.1571 68.4205 18.9596 68.3842 18.7685L67.3676 12.978L71.5663 8.90022C71.7131 8.77552 71.8216 8.61162 71.8791 8.42755C71.9367 8.24348 71.9411 8.04681 71.8916 7.86038ZM65.6393 11.9382C65.5201 12.0538 65.4309 12.1969 65.3795 12.3551C65.3281 12.5132 65.3161 12.6816 65.3445 12.8455L66.0765 17.117L62.2539 15.0781C62.1068 14.9995 61.9427 14.9584 61.7761 14.9584C61.6094 14.9584 61.4454 14.9995 61.2983 15.0781L57.4757 17.117L58.2077 12.8455C58.2361 12.6816 58.2241 12.5132 58.1727 12.3551C58.1213 12.1969 58.0321 12.0538 57.9129 11.9382L54.863 8.87983L59.143 8.25797C59.3077 8.23499 59.4643 8.17186 59.599 8.07411C59.7337 7.97636 59.8424 7.84696 59.9156 7.69727L61.7253 3.81318L63.6365 7.70747C63.7098 7.85716 63.8185 7.98655 63.9532 8.08431C64.0879 8.18206 64.2445 8.24519 64.4092 8.26816L68.6892 8.89002L65.6393 11.9382Z" fill="#051960"/>
<path d="M97.2511 7.86038C97.1869 7.67391 97.0701 7.51013 96.9149 7.38889C96.7597 7.26765 96.5728 7.19417 96.3768 7.17735L90.5921 6.33121L87.9997 1.06068C87.9165 0.888317 87.7865 0.742957 87.6247 0.641248C87.4628 0.53954 87.2757 0.485596 87.0847 0.485596C86.8938 0.485596 86.7066 0.53954 86.5448 0.641248C86.383 0.742957 86.253 0.888317 86.1698 1.06068L83.5774 6.32102L77.7927 7.17735C77.6045 7.20417 77.4276 7.28334 77.2821 7.40587C77.1365 7.5284 77.0281 7.68939 76.9692 7.87058C76.9153 8.04763 76.9104 8.23607 76.9552 8.41567C77 8.59527 77.0927 8.75925 77.2234 8.89002L81.4221 12.9678L80.4055 18.7583C80.3692 18.9494 80.3882 19.1469 80.4602 19.3276C80.5323 19.5082 80.6544 19.6644 80.8121 19.7777C80.9658 19.8879 81.1472 19.953 81.3357 19.9656C81.5243 19.9782 81.7126 19.9378 81.8796 19.8491L87.0847 17.1271L92.2696 19.8593C92.4123 19.94 92.5734 19.9821 92.7372 19.9816C92.9526 19.9824 93.1626 19.9145 93.3371 19.7879C93.4948 19.6746 93.6169 19.5184 93.6889 19.3378C93.761 19.1571 93.78 18.9596 93.7437 18.7685L92.7271 12.978L96.9258 8.90022C97.0726 8.77552 97.1811 8.61162 97.2386 8.42755C97.2962 8.24348 97.3005 8.04681 97.2511 7.86038ZM90.9988 11.9382C90.8796 12.0538 90.7904 12.1969 90.739 12.3551C90.6876 12.5132 90.6756 12.6816 90.704 12.8455L91.4359 17.117L87.6134 15.0781C87.4663 14.9995 87.3022 14.9584 87.1356 14.9584C86.9689 14.9584 86.8048 14.9995 86.6578 15.0781L82.8352 17.117L83.5672 12.8455C83.5956 12.6816 83.5836 12.5132 83.5322 12.3551C83.4808 12.1969 83.3916 12.0538 83.2724 11.9382L80.2225 8.87983L84.5025 8.25797C84.6672 8.23499 84.8237 8.17186 84.9585 8.07411C85.0932 7.97636 85.2019 7.84696 85.2751 7.69727L87.0847 3.81318L88.996 7.70747C89.0693 7.85716 89.178 7.98655 89.3127 8.08431C89.4474 8.18206 89.604 8.24519 89.7687 8.26816L94.0487 8.89002L90.9988 11.9382Z" fill="#051960"/>
<path d="M122.611 7.86038C122.546 7.67391 122.43 7.51013 122.274 7.38889C122.119 7.26765 121.932 7.19417 121.736 7.17735L115.952 6.33121L113.359 1.06068C113.276 0.888317 113.146 0.742957 112.984 0.641248C112.822 0.53954 112.635 0.485596 112.444 0.485596C112.253 0.485596 112.066 0.53954 111.904 0.641248C111.742 0.742957 111.612 0.888317 111.529 1.06068L108.937 6.32102L103.152 7.17735C102.964 7.20417 102.787 7.28334 102.642 7.40587C102.496 7.5284 102.388 7.68939 102.329 7.87058C102.275 8.04763 102.27 8.23607 102.315 8.41567C102.359 8.59527 102.452 8.75925 102.583 8.89002L106.782 12.9678L105.765 18.7583C105.729 18.9494 105.748 19.1469 105.82 19.3276C105.892 19.5082 106.014 19.6644 106.172 19.7777C106.325 19.8879 106.507 19.953 106.695 19.9656C106.884 19.9782 107.072 19.9378 107.239 19.8491L112.444 17.1271L117.629 19.8593C117.772 19.94 117.933 19.9821 118.097 19.9816C118.312 19.9824 118.522 19.9145 118.696 19.7879C118.854 19.6746 118.976 19.5184 119.048 19.3378C119.12 19.1571 119.139 18.9596 119.103 18.7685L118.087 12.978L122.285 8.90022C122.432 8.77552 122.54 8.61162 122.598 8.42755C122.656 8.24348 122.66 8.04681 122.611 7.86038ZM116.358 11.9382C116.239 12.0538 116.15 12.1969 116.098 12.3551C116.047 12.5132 116.035 12.6816 116.063 12.8455L116.795 17.117L112.973 15.0781C112.826 14.9995 112.662 14.9584 112.495 14.9584C112.328 14.9584 112.164 14.9995 112.017 15.0781L108.195 17.117L108.927 12.8455C108.955 12.6816 108.943 12.5132 108.892 12.3551C108.84 12.1969 108.751 12.0538 108.632 11.9382L105.582 8.87983L109.862 8.25797C110.027 8.23499 110.183 8.17186 110.318 8.07411C110.453 7.97636 110.561 7.84696 110.635 7.69727L112.444 3.81318L114.355 7.70747C114.429 7.85716 114.537 7.98655 114.672 8.08431C114.807 8.18206 114.963 8.24519 115.128 8.26816L119.408 8.89002L116.358 11.9382Z" fill="#051960"/>
</svg>
