<svg width="123" height="20" viewBox="0 0 123 20" fill="none" xmlns="http://www.w3.org/2000/svg">
<path d="M20.9501 7.84187C20.8858 7.65517 20.7689 7.49118 20.6135 7.36979C20.4581 7.24839 20.2709 7.17482 20.0747 7.15798L14.2827 6.31077L11.687 1.03357C11.6036 0.860994 11.4735 0.71545 11.3115 0.613613C11.1495 0.511776 10.9621 0.457764 10.7709 0.457764C10.5796 0.457764 10.3923 0.511776 10.2303 0.613613C10.0682 0.71545 9.93809 0.860994 9.85474 1.03357L7.25904 6.30056L1.46707 7.15798C1.27868 7.18483 1.10156 7.2641 0.955822 7.38679C0.810082 7.50948 0.701555 7.67067 0.642556 7.85208C0.58855 8.02936 0.583704 8.21803 0.628537 8.39786C0.67337 8.57769 0.766191 8.74188 0.897036 8.87282L5.10105 12.9558L4.08313 18.7535C4.04679 18.9449 4.06582 19.1427 4.13797 19.3236C4.21012 19.5044 4.33237 19.6608 4.4903 19.7743C4.64423 19.8846 4.82578 19.9498 5.01458 19.9624C5.20337 19.975 5.39194 19.9346 5.55912 19.8457L10.7709 17.1204L15.9623 19.8559C16.1051 19.9367 16.2665 19.979 16.4305 19.9784C16.6461 19.9792 16.8564 19.9113 17.0311 19.7845C17.189 19.671 17.3113 19.5146 17.3834 19.3338C17.4556 19.1529 17.4746 18.9551 17.4383 18.7637L16.4203 12.966L20.6243 8.88302C20.7713 8.75817 20.8799 8.59406 20.9376 8.40976C20.9953 8.22546 20.9996 8.02854 20.9501 7.84187ZM14.6899 11.9248C14.5705 12.0406 14.4812 12.1839 14.4297 12.3423C14.3783 12.5006 14.3662 12.6692 14.3947 12.8333L15.1276 17.1101L11.3002 15.0687C11.1529 14.99 10.9886 14.9489 10.8218 14.9489C10.6549 14.9489 10.4906 14.99 10.3433 15.0687L6.51596 17.1101L7.24886 12.8333C7.2773 12.6692 7.26527 12.5006 7.21381 12.3423C7.16236 12.1839 7.07305 12.0406 6.95367 11.9248L3.8999 8.86261L8.18535 8.23996C8.35025 8.21696 8.50701 8.15375 8.64189 8.05587C8.77676 7.958 8.88564 7.82844 8.95897 7.67856L10.7709 3.78956L12.6846 7.68876C12.7579 7.83865 12.8668 7.9682 13.0016 8.06608C13.1365 8.16396 13.2933 8.22717 13.4582 8.25017L17.7436 8.87282L14.6899 11.9248Z" fill="#051960"/>
<path d="M46.3416 7.84187C46.2773 7.65517 46.1604 7.49118 46.005 7.36979C45.8496 7.24839 45.6625 7.17482 45.4662 7.15798L39.6742 6.31077L37.0785 1.03357C36.9952 0.860994 36.865 0.71545 36.703 0.613613C36.541 0.511776 36.3536 0.457764 36.1624 0.457764C35.9712 0.457764 35.7838 0.511776 35.6218 0.613613C35.4598 0.71545 35.3296 0.860994 35.2463 1.03357L32.6506 6.30056L26.8586 7.15798C26.6702 7.18483 26.4931 7.2641 26.3474 7.38679C26.2016 7.50948 26.0931 7.67067 26.0341 7.85208C25.9801 8.02936 25.9752 8.21803 26.0201 8.39786C26.0649 8.57769 26.1577 8.74188 26.2886 8.87282L30.4926 12.9558L29.4747 18.7535C29.4383 18.9449 29.4574 19.1427 29.5295 19.3236C29.6017 19.5044 29.7239 19.6608 29.8818 19.7743C30.0358 19.8846 30.2173 19.9498 30.4061 19.9624C30.5949 19.975 30.7835 19.9346 30.9507 19.8457L36.1624 17.1204L41.3538 19.8559C41.4967 19.9367 41.658 19.979 41.8221 19.9784C42.0377 19.9792 42.248 19.9113 42.4226 19.7845C42.5806 19.671 42.7028 19.5146 42.775 19.3338C42.8471 19.1529 42.8661 18.9551 42.8298 18.7637L41.8119 12.966L46.0159 8.88302C46.1629 8.75817 46.2715 8.59406 46.3291 8.40976C46.3868 8.22546 46.3911 8.02854 46.3416 7.84187ZM40.0814 11.9248C39.962 12.0406 39.8727 12.1839 39.8213 12.3423C39.7698 12.5006 39.7578 12.6692 39.7862 12.8333L40.5191 17.1101L36.6917 15.0687C36.5445 14.99 36.3802 14.9489 36.2133 14.9489C36.0465 14.9489 35.8822 14.99 35.7349 15.0687L31.9075 17.1101L32.6404 12.8333C32.6688 12.6692 32.6568 12.5006 32.6054 12.3423C32.5539 12.1839 32.4646 12.0406 32.3452 11.9248L29.2914 8.86261L33.5769 8.23996C33.7418 8.21696 33.8986 8.15375 34.0334 8.05587C34.1683 7.958 34.2772 7.82844 34.3505 7.67856L36.1624 3.78956L38.0761 7.68876C38.1494 7.83865 38.2583 7.9682 38.3932 8.06608C38.5281 8.16396 38.6848 8.22717 38.8497 8.25017L43.1352 8.87282L40.0814 11.9248Z" fill="#051960"/>
<path d="M71.7332 7.84187C71.6689 7.65517 71.552 7.49118 71.3966 7.36979C71.2412 7.24839 71.054 7.17482 70.8577 7.15798L65.0658 6.31077L62.4701 1.03357C62.3867 0.860994 62.2566 0.71545 62.0946 0.613613C61.9325 0.511776 61.7452 0.457764 61.554 0.457764C61.3627 0.457764 61.1754 0.511776 61.0133 0.613613C60.8513 0.71545 60.7212 0.860994 60.6378 1.03357L58.0421 6.30056L52.2502 7.15798C52.0618 7.18483 51.8846 7.2641 51.7389 7.38679C51.5932 7.50948 51.4846 7.67067 51.4256 7.85208C51.3716 8.02936 51.3668 8.21803 51.4116 8.39786C51.4565 8.57769 51.5493 8.74188 51.6801 8.87282L55.8841 12.9558L54.8662 18.7535C54.8299 18.9449 54.8489 19.1427 54.921 19.3236C54.9932 19.5044 55.1155 19.6608 55.2734 19.7743C55.4273 19.8846 55.6089 19.9498 55.7977 19.9624C55.9865 19.975 56.175 19.9346 56.3422 19.8457L61.554 17.1204L66.7453 19.8559C66.8882 19.9367 67.0496 19.979 67.2136 19.9784C67.4292 19.9792 67.6395 19.9113 67.8142 19.7845C67.9721 19.671 68.0943 19.5146 68.1665 19.3338C68.2386 19.1529 68.2577 18.9551 68.2213 18.7637L67.2034 12.966L71.4074 8.88302C71.5544 8.75817 71.663 8.59406 71.7207 8.40976C71.7783 8.22546 71.7827 8.02854 71.7332 7.84187ZM65.4729 11.9248C65.3536 12.0406 65.2643 12.1839 65.2128 12.3423C65.1613 12.5006 65.1493 12.6692 65.1778 12.8333L65.9107 17.1101L62.0833 15.0687C61.936 14.99 61.7717 14.9489 61.6048 14.9489C61.438 14.9489 61.2737 14.99 61.1264 15.0687L57.299 17.1101L58.0319 12.8333C58.0604 12.6692 58.0483 12.5006 57.9969 12.3423C57.9454 12.1839 57.8561 12.0406 57.7367 11.9248L54.683 8.86261L58.9684 8.23996C59.1333 8.21696 59.2901 8.15375 59.425 8.05587C59.5598 7.958 59.6687 7.82844 59.7421 7.67856L61.554 3.78956L63.4676 7.68876C63.541 7.83865 63.6499 7.9682 63.7847 8.06608C63.9196 8.16396 64.0764 8.22717 64.2413 8.25017L68.5267 8.87282L65.4729 11.9248Z" fill="#051960"/>
<path d="M97.1246 7.84187C97.0604 7.65517 96.9434 7.49118 96.788 7.36979C96.6327 7.24839 96.4455 7.17482 96.2492 7.15798L90.4573 6.31077L87.8616 1.03357C87.7782 0.860994 87.6481 0.71545 87.486 0.613613C87.324 0.511776 87.1367 0.457764 86.9454 0.457764C86.7542 0.457764 86.5669 0.511776 86.4048 0.613613C86.2428 0.71545 86.1127 0.860994 86.0293 1.03357L83.4336 6.30056L77.6416 7.15798C77.4532 7.18483 77.2761 7.2641 77.1304 7.38679C76.9846 7.50948 76.8761 7.67067 76.8171 7.85208C76.7631 8.02936 76.7583 8.21803 76.8031 8.39786C76.8479 8.57769 76.9408 8.74188 77.0716 8.87282L81.2756 12.9558L80.2577 18.7535C80.2214 18.9449 80.2404 19.1427 80.3125 19.3236C80.3847 19.5044 80.5069 19.6608 80.6649 19.7743C80.8188 19.8846 81.0003 19.9498 81.1891 19.9624C81.3779 19.975 81.5665 19.9346 81.7337 19.8457L86.9454 17.1204L92.1368 19.8559C92.2797 19.9367 92.441 19.979 92.6051 19.9784C92.8207 19.9792 93.031 19.9113 93.2056 19.7845C93.3636 19.671 93.4858 19.5146 93.558 19.3338C93.6301 19.1529 93.6492 18.9551 93.6128 18.7637L92.5949 12.966L96.7989 8.88302C96.9459 8.75817 97.0545 8.59406 97.1122 8.40976C97.1698 8.22546 97.1741 8.02854 97.1246 7.84187ZM90.8644 11.9248C90.745 12.0406 90.6557 12.1839 90.6043 12.3423C90.5528 12.5006 90.5408 12.6692 90.5692 12.8333L91.3021 17.1101L87.4748 15.0687C87.3275 14.99 87.1632 14.9489 86.9963 14.9489C86.8295 14.9489 86.6652 14.99 86.5179 15.0687L82.6905 17.1101L83.4234 12.8333C83.4519 12.6692 83.4398 12.5006 83.3884 12.3423C83.3369 12.1839 83.2476 12.0406 83.1282 11.9248L80.0745 8.86261L84.3599 8.23996C84.5248 8.21696 84.6816 8.15375 84.8164 8.05587C84.9513 7.958 85.0602 7.82844 85.1335 7.67856L86.9454 3.78956L88.8591 7.68876C88.9325 7.83865 89.0413 7.9682 89.1762 8.06608C89.3111 8.16396 89.4678 8.22717 89.6327 8.25017L93.9182 8.87282L90.8644 11.9248Z" fill="#051960"/>
<path d="M122.516 7.84187C122.452 7.65517 122.335 7.49118 122.18 7.36979C122.024 7.24839 121.837 7.17482 121.641 7.15798L115.849 6.31077L113.253 1.03357C113.17 0.860994 113.04 0.71545 112.878 0.613613C112.716 0.511776 112.528 0.457764 112.337 0.457764C112.146 0.457764 111.958 0.511776 111.796 0.613613C111.634 0.71545 111.504 0.860994 111.421 1.03357L108.825 6.30056L103.033 7.15798C102.845 7.18483 102.668 7.2641 102.522 7.38679C102.376 7.50948 102.268 7.67067 102.209 7.85208C102.155 8.02936 102.15 8.21803 102.195 8.39786C102.239 8.57769 102.332 8.74188 102.463 8.87282L106.667 12.9558L105.649 18.7535C105.613 18.9449 105.632 19.1427 105.704 19.3236C105.776 19.5044 105.898 19.6608 106.056 19.7743C106.21 19.8846 106.392 19.9498 106.581 19.9624C106.769 19.975 106.958 19.9346 107.125 19.8457L112.337 17.1204L117.528 19.8559C117.671 19.9367 117.833 19.979 117.997 19.9784C118.212 19.9792 118.423 19.9113 118.597 19.7845C118.755 19.671 118.877 19.5146 118.95 19.3338C119.022 19.1529 119.041 18.9551 119.004 18.7637L117.986 12.966L122.19 8.88302C122.337 8.75817 122.446 8.59406 122.504 8.40976C122.561 8.22546 122.566 8.02854 122.516 7.84187ZM116.256 11.9248C116.137 12.0406 116.047 12.1839 115.996 12.3423C115.944 12.5006 115.932 12.6692 115.961 12.8333L116.694 17.1101L112.866 15.0687C112.719 14.99 112.555 14.9489 112.388 14.9489C112.221 14.9489 112.057 14.99 111.909 15.0687L108.082 17.1101L108.815 12.8333C108.843 12.6692 108.831 12.5006 108.78 12.3423C108.728 12.1839 108.639 12.0406 108.52 11.9248L105.466 8.86261L109.751 8.23996C109.916 8.21696 110.073 8.15375 110.208 8.05587C110.343 7.958 110.452 7.82844 110.525 7.67856L112.337 3.78956L114.251 7.68876C114.324 7.83865 114.433 7.9682 114.568 8.06608C114.703 8.16396 114.859 8.22717 115.024 8.25017L119.31 8.87282L116.256 11.9248Z" fill="#051960"/>
</svg>
