<svg width="123" height="21" viewBox="0 0 123 21" fill="none" xmlns="http://www.w3.org/2000/svg">
<path d="M20.6671 8.12796C20.6029 7.94149 20.4861 7.77771 20.3309 7.65647C20.1757 7.53523 19.9888 7.46175 19.7928 7.44493L14.0081 6.59879L11.4157 1.32825C11.3324 1.15589 11.2024 1.01054 11.0406 0.908826C10.8788 0.807118 10.6917 0.753174 10.5007 0.753174C10.3097 0.753174 10.1226 0.807118 9.96078 0.908826C9.79896 1.01054 9.66898 1.15589 9.58573 1.32825L6.99331 6.5886L1.20865 7.44493C1.02049 7.47175 0.843602 7.55092 0.698046 7.67345C0.55249 7.79598 0.4441 7.95697 0.385176 8.13815C0.331238 8.31521 0.326398 8.50364 0.371175 8.68325C0.415951 8.86285 0.508654 9.02683 0.639335 9.1576L4.83804 13.2354L3.8214 19.0258C3.78511 19.217 3.80412 19.4145 3.87617 19.5952C3.94823 19.7758 4.07033 19.932 4.22806 20.0453C4.38179 20.1555 4.56312 20.2206 4.75168 20.2332C4.94023 20.2458 5.12857 20.2054 5.29553 20.1166L10.5007 17.3947L15.6855 20.1268C15.8282 20.2076 15.9894 20.2497 16.1532 20.2492C16.3685 20.2499 16.5786 20.1821 16.753 20.0555C16.9107 19.9422 17.0328 19.786 17.1049 19.6053C17.177 19.4247 17.196 19.2272 17.1597 19.036L16.143 13.2456L20.3417 9.1678C20.4885 9.0431 20.597 8.87919 20.6546 8.69513C20.7122 8.51106 20.7165 8.31439 20.6671 8.12796ZM14.4148 12.2057C14.2955 12.3214 14.2063 12.4645 14.1549 12.6227C14.1035 12.7808 14.0915 12.9492 14.1199 13.1131L14.8519 17.3845L11.0294 15.3456C10.8823 15.2671 10.7182 15.226 10.5515 15.226C10.3849 15.226 10.2208 15.2671 10.0737 15.3456L6.25116 17.3845L6.98314 13.1131C7.01154 12.9492 6.99952 12.7808 6.94813 12.6227C6.89674 12.4645 6.80755 12.3214 6.68832 12.2057L3.63841 9.14741L7.91845 8.52554C8.08314 8.50257 8.2397 8.43944 8.37441 8.34169C8.50911 8.24394 8.61785 8.11454 8.69109 7.96485L10.5007 4.08076L12.412 7.97504C12.4852 8.12474 12.594 8.25413 12.7287 8.35188C12.8634 8.44964 13.0199 8.51277 13.1846 8.53574L17.4647 9.1576L14.4148 12.2057Z" fill="#051960"/>
<path d="M46.0265 8.12796C45.9623 7.94149 45.8455 7.77771 45.6904 7.65647C45.5352 7.53523 45.3482 7.46175 45.1522 7.44493L39.3676 6.59879L36.7751 1.32825C36.6919 1.15589 36.5619 1.01054 36.4001 0.908826C36.2383 0.807118 36.0512 0.753174 35.8602 0.753174C35.6692 0.753174 35.4821 0.807118 35.3202 0.908826C35.1584 1.01054 35.0284 1.15589 34.9452 1.32825L32.3528 6.5886L26.5681 7.44493C26.38 7.47175 26.2031 7.55092 26.0575 7.67345C25.912 7.79598 25.8036 7.95697 25.7446 8.13815C25.6907 8.31521 25.6859 8.50364 25.7306 8.68325C25.7754 8.86285 25.8681 9.02683 25.9988 9.1576L30.1975 13.2354L29.1809 19.0258C29.1446 19.217 29.1636 19.4145 29.2356 19.5952C29.3077 19.7758 29.4298 19.932 29.5875 20.0453C29.7413 20.1555 29.9226 20.2206 30.1111 20.2332C30.2997 20.2458 30.488 20.2054 30.655 20.1166L35.8602 17.3947L41.045 20.1268C41.1877 20.2076 41.3488 20.2497 41.5127 20.2492C41.728 20.2499 41.938 20.1821 42.1125 20.0555C42.2702 19.9422 42.3923 19.786 42.4644 19.6053C42.5364 19.4247 42.5554 19.2272 42.5191 19.036L41.5025 13.2456L45.7012 9.1678C45.848 9.0431 45.9565 8.87919 46.0141 8.69513C46.0716 8.51106 46.076 8.31439 46.0265 8.12796ZM39.7742 12.2057C39.655 12.3214 39.5658 12.4645 39.5144 12.6227C39.463 12.7808 39.451 12.9492 39.4794 13.1131L40.2114 17.3845L36.3888 15.3456C36.2417 15.2671 36.0776 15.226 35.911 15.226C35.7444 15.226 35.5803 15.2671 35.4332 15.3456L31.6106 17.3845L32.3426 13.1131C32.371 12.9492 32.359 12.7808 32.3076 12.6227C32.2562 12.4645 32.167 12.3214 32.0478 12.2057L28.9979 9.14741L33.2779 8.52554C33.4426 8.50257 33.5992 8.43944 33.7339 8.34169C33.8686 8.24394 33.9773 8.11454 34.0506 7.96485L35.8602 4.08076L37.7714 7.97504C37.8447 8.12474 37.9534 8.25413 38.0881 8.35188C38.2228 8.44964 38.3794 8.51277 38.5441 8.53574L42.8241 9.1576L39.7742 12.2057Z" fill="#051960"/>
<path d="M71.3859 8.12796C71.3217 7.94149 71.205 7.77771 71.0498 7.65647C70.8946 7.53523 70.7076 7.46175 70.5116 7.44493L64.727 6.59879L62.1345 1.32825C62.0513 1.15589 61.9213 1.01054 61.7595 0.908826C61.5977 0.807118 61.4106 0.753174 61.2196 0.753174C61.0286 0.753174 60.8415 0.807118 60.6796 0.908826C60.5178 1.01054 60.3878 1.15589 60.3046 1.32825L57.7122 6.5886L51.9275 7.44493C51.7394 7.47175 51.5625 7.55092 51.4169 7.67345C51.2714 7.79598 51.163 7.95697 51.104 8.13815C51.0501 8.31521 51.0453 8.50364 51.09 8.68325C51.1348 8.86285 51.2275 9.02683 51.3582 9.1576L55.5569 13.2354L54.5403 19.0258C54.504 19.217 54.523 19.4145 54.595 19.5952C54.6671 19.7758 54.7892 19.932 54.9469 20.0453C55.1007 20.1555 55.282 20.2206 55.4705 20.2332C55.6591 20.2458 55.8474 20.2054 56.0144 20.1166L61.2196 17.3947L66.4044 20.1268C66.5471 20.2076 66.7082 20.2497 66.8721 20.2492C67.0874 20.2499 67.2974 20.1821 67.4719 20.0555C67.6296 19.9422 67.7517 19.786 67.8238 19.6053C67.8958 19.4247 67.9148 19.2272 67.8785 19.036L66.8619 13.2456L71.0606 9.1678C71.2074 9.0431 71.3159 8.87919 71.3735 8.69513C71.4311 8.51106 71.4354 8.31439 71.3859 8.12796ZM65.1336 12.2057C65.0144 12.3214 64.9252 12.4645 64.8738 12.6227C64.8224 12.7808 64.8104 12.9492 64.8388 13.1131L65.5708 17.3845L61.7482 15.3456C61.6011 15.2671 61.437 15.226 61.2704 15.226C61.1038 15.226 60.9397 15.2671 60.7926 15.3456L56.97 17.3845L57.702 13.1131C57.7304 12.9492 57.7184 12.7808 57.667 12.6227C57.6156 12.4645 57.5264 12.3214 57.4072 12.2057L54.3573 9.14741L58.6373 8.52554C58.802 8.50257 58.9586 8.43944 59.0933 8.34169C59.228 8.24394 59.3367 8.11454 59.41 7.96485L61.2196 4.08076L63.1308 7.97504C63.2041 8.12474 63.3128 8.25413 63.4475 8.35188C63.5822 8.44964 63.7388 8.51277 63.9035 8.53574L68.1835 9.1576L65.1336 12.2057Z" fill="#051960"/>
<path d="M96.7454 8.12796C96.6812 7.94149 96.5644 7.77771 96.4093 7.65647C96.2541 7.53523 96.0671 7.46175 95.8711 7.44493L90.0865 6.59879L87.494 1.32825C87.4108 1.15589 87.2808 1.01054 87.119 0.908826C86.9572 0.807118 86.7701 0.753174 86.5791 0.753174C86.3881 0.753174 86.201 0.807118 86.0391 0.908826C85.8773 1.01054 85.7473 1.15589 85.6641 1.32825L83.0717 6.5886L77.287 7.44493C77.0989 7.47175 76.922 7.55092 76.7764 7.67345C76.6309 7.79598 76.5225 7.95697 76.4635 8.13815C76.4096 8.31521 76.4048 8.50364 76.4495 8.68325C76.4943 8.86285 76.587 9.02683 76.7177 9.1576L80.9164 13.2354L79.8998 19.0258C79.8635 19.217 79.8825 19.4145 79.9545 19.5952C80.0266 19.7758 80.1487 19.932 80.3064 20.0453C80.4602 20.1555 80.6415 20.2206 80.83 20.2332C81.0186 20.2458 81.2069 20.2054 81.3739 20.1166L86.5791 17.3947L91.7639 20.1268C91.9066 20.2076 92.0677 20.2497 92.2316 20.2492C92.4469 20.2499 92.6569 20.1821 92.8314 20.0555C92.9891 19.9422 93.1112 19.786 93.1833 19.6053C93.2553 19.4247 93.2743 19.2272 93.238 19.036L92.2214 13.2456L96.4201 9.1678C96.5669 9.0431 96.6754 8.87919 96.733 8.69513C96.7905 8.51106 96.7949 8.31439 96.7454 8.12796ZM90.4931 12.2057C90.3739 12.3214 90.2847 12.4645 90.2333 12.6227C90.1819 12.7808 90.1699 12.9492 90.1983 13.1131L90.9303 17.3845L87.1077 15.3456C86.9606 15.2671 86.7965 15.226 86.6299 15.226C86.4633 15.226 86.2992 15.2671 86.1521 15.3456L82.3295 17.3845L83.0615 13.1131C83.0899 12.9492 83.0779 12.7808 83.0265 12.6227C82.9751 12.4645 82.8859 12.3214 82.7667 12.2057L79.7168 9.14741L83.9968 8.52554C84.1615 8.50257 84.3181 8.43944 84.4528 8.34169C84.5875 8.24394 84.6962 8.11454 84.7695 7.96485L86.5791 4.08076L88.4903 7.97504C88.5636 8.12474 88.6723 8.25413 88.807 8.35188C88.9417 8.44964 89.0983 8.51277 89.263 8.53574L93.543 9.1576L90.4931 12.2057Z" fill="#051960"/>
<path d="M122.105 8.12796C122.041 7.94149 121.924 7.77771 121.769 7.65647C121.614 7.53523 121.427 7.46175 121.231 7.44493L115.446 6.59879L112.853 1.32825C112.77 1.15589 112.64 1.01054 112.478 0.908826C112.317 0.807118 112.129 0.753174 111.939 0.753174C111.748 0.753174 111.56 0.807118 111.399 0.908826C111.237 1.01054 111.107 1.15589 111.024 1.32825L108.431 6.5886L102.646 7.44493C102.458 7.47175 102.281 7.55092 102.136 7.67345C101.99 7.79598 101.882 7.95697 101.823 8.13815C101.769 8.31521 101.764 8.50364 101.809 8.68325C101.854 8.86285 101.946 9.02683 102.077 9.1576L106.276 13.2354L105.259 19.0258C105.223 19.217 105.242 19.4145 105.314 19.5952C105.386 19.7758 105.508 19.932 105.666 20.0453C105.82 20.1555 106.001 20.2206 106.189 20.2332C106.378 20.2458 106.566 20.2054 106.733 20.1166L111.939 17.3947L117.123 20.1268C117.266 20.2076 117.427 20.2497 117.591 20.2492C117.806 20.2499 118.016 20.1821 118.191 20.0555C118.349 19.9422 118.471 19.786 118.543 19.6053C118.615 19.4247 118.634 19.2272 118.597 19.036L117.581 13.2456L121.78 9.1678C121.926 9.0431 122.035 8.87919 122.092 8.69513C122.15 8.51106 122.154 8.31439 122.105 8.12796ZM115.853 12.2057C115.733 12.3214 115.644 12.4645 115.593 12.6227C115.541 12.7808 115.529 12.9492 115.558 13.1131L116.29 17.3845L112.467 15.3456C112.32 15.2671 112.156 15.226 111.989 15.226C111.823 15.226 111.659 15.2671 111.512 15.3456L107.689 17.3845L108.421 13.1131C108.449 12.9492 108.437 12.7808 108.386 12.6227C108.335 12.4645 108.245 12.3214 108.126 12.2057L105.076 9.14741L109.356 8.52554C109.521 8.50257 109.678 8.43944 109.812 8.34169C109.947 8.24394 110.056 8.11454 110.129 7.96485L111.939 4.08076L113.85 7.97504C113.923 8.12474 114.032 8.25413 114.166 8.35188C114.301 8.44964 114.458 8.51277 114.622 8.53574L118.902 9.1576L115.853 12.2057Z" fill="#051960"/>
</svg>
