<svg width="124" height="19" viewBox="0 0 124 19" fill="none" xmlns="http://www.w3.org/2000/svg">
<path d="M20.94 7.06767C20.8748 6.88905 20.7563 6.73217 20.5987 6.61604C20.4412 6.49991 20.2514 6.42952 20.0524 6.41341L14.1802 5.60291L11.5486 0.554395C11.464 0.389297 11.3321 0.25006 11.1678 0.152636C11.0036 0.0552116 10.8136 0.00354004 10.6197 0.00354004C10.4259 0.00354004 10.2359 0.0552116 10.0716 0.152636C9.90737 0.25006 9.77542 0.389297 9.69091 0.554395L7.05925 5.59315L1.18703 6.41341C0.996023 6.4391 0.816453 6.51493 0.668694 6.6323C0.520935 6.74967 0.410904 6.90388 0.351088 7.07743C0.296334 7.24703 0.29142 7.42753 0.336875 7.59956C0.382329 7.7716 0.476435 7.92867 0.609094 8.05394L4.87136 11.9599L3.83933 17.5065C3.80249 17.6896 3.82178 17.8788 3.89493 18.0518C3.96808 18.2248 4.09203 18.3745 4.25214 18.483C4.4082 18.5885 4.59227 18.6509 4.78368 18.6629C4.9751 18.675 5.16628 18.6364 5.33577 18.5513L10.6197 15.9441L15.8831 18.5611C16.0279 18.6384 16.1915 18.6788 16.3578 18.6783C16.5764 18.679 16.7896 18.6141 16.9667 18.4927C17.1268 18.3842 17.2508 18.2346 17.3239 18.0616C17.397 17.8885 17.4163 17.6993 17.3795 17.5162L16.3475 11.9697L20.6097 8.0637C20.7587 7.94425 20.8689 7.78725 20.9273 7.61094C20.9858 7.43463 20.9902 7.24624 20.94 7.06767ZM14.593 10.9737C14.472 11.0844 14.3814 11.2216 14.3293 11.373C14.2771 11.5245 14.2649 11.6858 14.2937 11.8428L15.0368 15.9343L11.1564 13.9813C11.0071 13.9061 10.8405 13.8667 10.6713 13.8667C10.5022 13.8667 10.3356 13.9061 10.1863 13.9813L6.30587 15.9343L7.04893 11.8428C7.07776 11.6858 7.06556 11.5245 7.01339 11.373C6.96122 11.2216 6.87067 11.0844 6.74964 10.9737L3.65357 8.04417L7.99839 7.4485C8.16558 7.4265 8.32451 7.36603 8.46125 7.27239C8.598 7.17876 8.70838 7.05481 8.78273 6.91143L10.6197 3.19095L12.5599 6.92119C12.6343 7.06458 12.7447 7.18852 12.8814 7.28216C13.0182 7.37579 13.1771 7.43626 13.3443 7.45827L17.6891 8.05394L14.593 10.9737Z" fill="#051960"/>
<path d="M46.6833 7.06754C46.6181 6.88893 46.4996 6.73205 46.342 6.61591C46.1845 6.49978 45.9947 6.4294 45.7958 6.41329L39.9235 5.60279L37.2919 0.554273C37.2074 0.389175 37.0754 0.249938 36.9111 0.152514C36.7469 0.0550896 36.5569 0.00341797 36.3631 0.00341797C36.1692 0.00341797 35.9792 0.0550896 35.815 0.152514C35.6507 0.249938 35.5187 0.389175 35.4342 0.554273L32.8026 5.59303L26.9303 6.41329C26.7393 6.43898 26.5598 6.51481 26.412 6.63218C26.2643 6.74955 26.1542 6.90376 26.0944 7.07731C26.0397 7.2469 26.0347 7.4274 26.0802 7.59944C26.1256 7.77147 26.2198 7.92855 26.3524 8.05381L30.6147 11.9598L29.5826 17.5064C29.5458 17.6894 29.5651 17.8787 29.6382 18.0517C29.7114 18.2247 29.8353 18.3743 29.9955 18.4829C30.1515 18.5884 30.3356 18.6507 30.527 18.6628C30.7184 18.6749 30.9096 18.6362 31.0791 18.5512L36.3631 15.944L41.6264 18.561C41.7712 18.6383 41.9348 18.6787 42.1011 18.6782C42.3197 18.6789 42.5329 18.6139 42.71 18.4926C42.8701 18.3841 42.9941 18.2345 43.0672 18.0615C43.1404 17.8884 43.1597 17.6992 43.1228 17.5161L42.0908 11.9696L46.3531 8.06358C46.5021 7.94413 46.6122 7.78713 46.6706 7.61082C46.7291 7.43451 46.7335 7.24612 46.6833 7.06754ZM40.3363 10.9736C40.2153 11.0843 40.1248 11.2214 40.0726 11.3729C40.0204 11.5244 40.0082 11.6857 40.0371 11.8426L40.7801 15.9342L36.8997 13.9812C36.7504 13.906 36.5838 13.8666 36.4147 13.8666C36.2455 13.8666 36.0789 13.906 35.9296 13.9812L32.0492 15.9342L32.7922 11.8426C32.8211 11.6857 32.8089 11.5244 32.7567 11.3729C32.7045 11.2214 32.614 11.0843 32.493 10.9736L29.3969 8.04405L33.7417 7.44838C33.9089 7.42638 34.0678 7.36591 34.2046 7.27227C34.3413 7.17863 34.4517 7.05469 34.526 6.9113L36.3631 3.19083L38.3033 6.92107C38.3776 7.06446 38.488 7.1884 38.6247 7.28204C38.7615 7.37567 38.9204 7.43614 39.0876 7.45815L43.4324 8.05381L40.3363 10.9736Z" fill="#051960"/>
<path d="M72.4267 7.06754C72.3615 6.88893 72.243 6.73205 72.0854 6.61591C71.9279 6.49978 71.7381 6.4294 71.5391 6.41329L65.6669 5.60279L63.0353 0.554273C62.9507 0.389175 62.8188 0.249938 62.6545 0.152514C62.4903 0.0550896 62.3003 0.00341797 62.1064 0.00341797C61.9126 0.00341797 61.7226 0.0550896 61.5583 0.152514C61.3941 0.249938 61.2621 0.389175 61.1776 0.554273L58.5459 5.59303L52.6737 6.41329C52.4827 6.43898 52.3031 6.51481 52.1554 6.63218C52.0076 6.74955 51.8976 6.90376 51.8378 7.07731C51.783 7.2469 51.7781 7.4274 51.8236 7.59944C51.869 7.77147 51.9631 7.92855 52.0958 8.05381L56.3581 11.9598L55.326 17.5064C55.2892 17.6894 55.3085 17.8787 55.3816 18.0517C55.4548 18.2247 55.5787 18.3743 55.7388 18.4829C55.8949 18.5884 56.079 18.6507 56.2704 18.6628C56.4618 18.6749 56.653 18.6362 56.8225 18.5512L62.1064 15.944L67.3698 18.561C67.5146 18.6383 67.6782 18.6787 67.8445 18.6782C68.0631 18.6789 68.2763 18.6139 68.4534 18.4926C68.6135 18.3841 68.7374 18.2345 68.8106 18.0615C68.8837 17.8884 68.903 17.6992 68.8662 17.5161L67.8342 11.9696L72.0964 8.06358C72.2454 7.94413 72.3556 7.78713 72.414 7.61082C72.4725 7.43451 72.4769 7.24612 72.4267 7.06754ZM66.0797 10.9736C65.9587 11.0843 65.8681 11.2214 65.816 11.3729C65.7638 11.5244 65.7516 11.6857 65.7804 11.8426L66.5235 15.9342L62.6431 13.9812C62.4938 13.906 62.3272 13.8666 62.158 13.8666C61.9889 13.8666 61.8223 13.906 61.673 13.9812L57.7926 15.9342L58.5356 11.8426C58.5645 11.6857 58.5523 11.5244 58.5001 11.3729C58.4479 11.2214 58.3574 11.0843 58.2363 10.9736L55.1403 8.04405L59.4851 7.44838C59.6523 7.42638 59.8112 7.36591 59.9479 7.27227C60.0847 7.17863 60.1951 7.05469 60.2694 6.9113L62.1064 3.19083L64.0466 6.92107C64.121 7.06446 64.2314 7.1884 64.3681 7.28204C64.5049 7.37567 64.6638 7.43614 64.831 7.45815L69.1758 8.05381L66.0797 10.9736Z" fill="#051960"/>
<path d="M98.17 7.06754C98.1048 6.88893 97.9863 6.73205 97.8287 6.61591C97.6712 6.49978 97.4814 6.4294 97.2825 6.41329L91.4102 5.60279L88.7786 0.554273C88.6941 0.389175 88.5621 0.249938 88.3978 0.152514C88.2336 0.0550896 88.0436 0.00341797 87.8497 0.00341797C87.6559 0.00341797 87.4659 0.0550896 87.3016 0.152514C87.1374 0.249938 87.0054 0.389175 86.9209 0.554273L84.2893 5.59303L78.417 6.41329C78.226 6.43898 78.0465 6.51481 77.8987 6.63218C77.7509 6.74955 77.6409 6.90376 77.5811 7.07731C77.5263 7.2469 77.5214 7.4274 77.5669 7.59944C77.6123 7.77147 77.7064 7.92855 77.8391 8.05381L82.1014 11.9598L81.0693 17.5064C81.0325 17.6894 81.0518 17.8787 81.1249 18.0517C81.1981 18.2247 81.322 18.3743 81.4822 18.4829C81.6382 18.5884 81.8223 18.6507 82.0137 18.6628C82.2051 18.6749 82.3963 18.6362 82.5658 18.5512L87.8497 15.944L93.1131 18.561C93.2579 18.6383 93.4215 18.6787 93.5878 18.6782C93.8064 18.6789 94.0196 18.6139 94.1967 18.4926C94.3568 18.3841 94.4808 18.2345 94.5539 18.0615C94.6271 17.8884 94.6464 17.6992 94.6095 17.5161L93.5775 11.9696L97.8397 8.06358C97.9888 7.94413 98.0989 7.78713 98.1573 7.61082C98.2158 7.43451 98.2202 7.24612 98.17 7.06754ZM91.823 10.9736C91.702 11.0843 91.6115 11.2214 91.5593 11.3729C91.5071 11.5244 91.4949 11.6857 91.5238 11.8426L92.2668 15.9342L88.3864 13.9812C88.2371 13.906 88.0705 13.8666 87.9013 13.8666C87.7322 13.8666 87.5656 13.906 87.4163 13.9812L83.5359 15.9342L84.2789 11.8426C84.3078 11.6857 84.2956 11.5244 84.2434 11.3729C84.1912 11.2214 84.1007 11.0843 83.9797 10.9736L80.8836 8.04405L85.2284 7.44838C85.3956 7.42638 85.5545 7.36591 85.6913 7.27227C85.828 7.17863 85.9384 7.05469 86.0127 6.9113L87.8497 3.19083L89.79 6.92107C89.8643 7.06446 89.9747 7.1884 90.1114 7.28204C90.2482 7.37567 90.4071 7.43614 90.5743 7.45815L94.9191 8.05381L91.823 10.9736Z" fill="#051960"/>
<path d="M123.913 7.06754C123.848 6.88893 123.73 6.73205 123.572 6.61591C123.415 6.49978 123.225 6.4294 123.026 6.41329L117.154 5.60279L114.522 0.554273C114.437 0.389175 114.305 0.249938 114.141 0.152514C113.977 0.0550896 113.787 0.00341797 113.593 0.00341797C113.399 0.00341797 113.209 0.0550896 113.045 0.152514C112.881 0.249938 112.749 0.389175 112.664 0.554273L110.033 5.59303L104.16 6.41329C103.969 6.43898 103.79 6.51481 103.642 6.63218C103.494 6.74955 103.384 6.90376 103.324 7.07731C103.27 7.2469 103.265 7.4274 103.31 7.59944C103.356 7.77147 103.45 7.92855 103.582 8.05381L107.845 11.9598L106.813 17.5064C106.776 17.6894 106.795 17.8787 106.868 18.0517C106.941 18.2247 107.065 18.3743 107.226 18.4829C107.382 18.5884 107.566 18.6507 107.757 18.6628C107.948 18.6749 108.14 18.6362 108.309 18.5512L113.593 15.944L118.856 18.561C119.001 18.6383 119.165 18.6787 119.331 18.6782C119.55 18.6789 119.763 18.6139 119.94 18.4926C120.1 18.3841 120.224 18.2345 120.297 18.0615C120.37 17.8884 120.39 17.6992 120.353 17.5161L119.321 11.9696L123.583 8.06358C123.732 7.94413 123.842 7.78713 123.901 7.61082C123.959 7.43451 123.964 7.24612 123.913 7.06754ZM117.566 10.9736C117.445 11.0843 117.355 11.2214 117.303 11.3729C117.25 11.5244 117.238 11.6857 117.267 11.8426L118.01 15.9342L114.13 13.9812C113.98 13.906 113.814 13.8666 113.645 13.8666C113.476 13.8666 113.309 13.906 113.16 13.9812L109.279 15.9342L110.022 11.8426C110.051 11.6857 110.039 11.5244 109.987 11.3729C109.935 11.2214 109.844 11.0843 109.723 10.9736L106.627 8.04405L110.972 7.44838C111.139 7.42638 111.298 7.36591 111.435 7.27227C111.571 7.17863 111.682 7.05469 111.756 6.9113L113.593 3.19083L115.533 6.92107C115.608 7.06446 115.718 7.1884 115.855 7.28204C115.992 7.37567 116.15 7.43614 116.318 7.45815L120.662 8.05381L117.566 10.9736Z" fill="#051960"/>
</svg>
