<svg width="49" height="56" viewBox="0 0 49 56" fill="none" xmlns="http://www.w3.org/2000/svg">
<path fill-rule="evenodd" clip-rule="evenodd" d="M37.4706 15.5C37.4706 23.7875 31.6662 30.5 24.5 30.5C17.3337 30.5 11.5294 23.7875 11.5294 15.5C11.5294 7.2125 17.3337 0.5 24.5 0.5C31.6662 0.5 37.4706 7.2125 37.4706 15.5ZM33.8676 33.8332C33.5627 33.7472 33.2363 33.9203 33.0881 34.269L27.3824 53.1192V47.1667L26.5544 40.4643C27.0856 40.335 27.5194 39.8657 27.6553 39.2375L28.3759 35.9042C28.6032 34.8523 27.9153 33.8333 26.9777 33.8333H22.0223C21.0847 33.8333 20.3967 34.8523 20.6241 35.9042L21.3447 39.2375C21.4804 39.8657 21.9144 40.335 22.4456 40.4643L21.6176 47.1667V51.6603L15.9119 34.269C15.7637 33.9203 15.4373 33.7472 15.1324 33.8332C14.6154 33.979 14.0588 34.1297 13.478 34.2868C10.2179 35.169 6.18899 36.2593 4.04682 37.886C1.50652 39.815 0 42.089 0 44.6665V55.4998L21.6176 55.4995L27.3824 55.5L49 55.4998V44.6665C49 42.089 47.4935 39.815 44.9532 37.886C42.811 36.2593 38.7819 35.169 35.5218 34.2867C34.941 34.1295 34.3846 33.979 33.8676 33.8332Z" fill="#141A2E"/>
</svg>
