<svg width="26" height="26" viewBox="0 0 26 26" fill="none" xmlns="http://www.w3.org/2000/svg">
<path d="M25.2198 23.345L20.378 18.6382C21.9402 16.6978 22.7878 14.3016 22.7847 11.8348C22.7847 9.63795 22.1165 7.49042 20.8647 5.66379C19.6129 3.83717 17.8337 2.41349 15.752 1.57279C13.6703 0.732085 11.3797 0.512119 9.16981 0.940705C6.95991 1.36929 4.92999 2.42718 3.33674 3.9806C1.7435 5.53401 0.658482 7.51319 0.218906 9.66784C-0.22067 11.8225 0.00493608 14.0558 0.867195 16.0855C1.72945 18.1151 3.18964 19.8499 5.0631 21.0704C6.93656 22.2909 9.13915 22.9423 11.3923 22.9423C13.9224 22.9454 16.38 22.119 18.3702 20.5959L23.1977 25.3166C23.33 25.4467 23.4875 25.55 23.6611 25.6205C23.8346 25.691 24.0207 25.7273 24.2087 25.7273C24.3967 25.7273 24.5828 25.691 24.7564 25.6205C24.9299 25.55 25.0874 25.4467 25.2198 25.3166C25.3533 25.1875 25.4592 25.0339 25.5315 24.8647C25.6038 24.6955 25.641 24.5141 25.641 24.3308C25.641 24.1475 25.6038 23.966 25.5315 23.7968C25.4592 23.6276 25.3533 23.4741 25.2198 23.345ZM2.84809 11.8348C2.84809 10.1872 3.3492 8.57652 4.28806 7.20655C5.22691 5.83658 6.56134 4.76882 8.1226 4.13829C9.68386 3.50777 11.4018 3.34279 13.0592 3.66423C14.7167 3.98567 16.2391 4.77909 17.434 5.94415C18.629 7.10921 19.4427 8.59359 19.7724 10.2096C20.1021 11.8256 19.9329 13.5006 19.2862 15.0228C18.6395 16.545 17.5444 17.8461 16.1393 18.7615C14.7342 19.6769 13.0822 20.1655 11.3923 20.1655C9.12627 20.1655 6.953 19.2878 5.35064 17.7255C3.74829 16.1632 2.84809 14.0442 2.84809 11.8348Z" fill="#1C0000"/>
</svg>
