<svg width="26" height="25" viewBox="0 0 26 25" fill="none" xmlns="http://www.w3.org/2000/svg">
<path d="M25.2198 22.6177L20.3781 17.9109C21.9402 15.9705 22.7878 13.5743 22.7847 11.1075C22.7847 8.91067 22.1165 6.76315 20.8647 4.93652C19.6129 3.1099 17.8337 1.68622 15.752 0.845515C13.6703 0.00481268 11.3797 -0.215153 9.16981 0.213433C6.95991 0.64202 4.92999 1.69991 3.33674 3.25333C1.7435 4.80674 0.658482 6.78591 0.218906 8.94056C-0.22067 11.0952 0.00493608 13.3286 0.867195 15.3582C1.72945 17.3878 3.18964 19.1226 5.0631 20.3431C6.93656 21.5636 9.13915 22.2151 11.3923 22.2151C13.9224 22.2181 16.38 21.3917 18.3702 19.8686L23.1977 24.5893C23.33 24.7194 23.4875 24.8227 23.6611 24.8932C23.8346 24.9637 24.0207 25 24.2087 25C24.3967 25 24.5828 24.9637 24.7564 24.8932C24.9299 24.8227 25.0874 24.7194 25.2198 24.5893C25.3533 24.4602 25.4592 24.3067 25.5315 24.1375C25.6038 23.9683 25.641 23.7868 25.641 23.6035C25.641 23.4202 25.6038 23.2387 25.5315 23.0695C25.4592 22.9004 25.3533 22.7468 25.2198 22.6177ZM2.84809 11.1075C2.84809 9.45989 3.3492 7.84924 4.28806 6.47928C5.22691 5.10931 6.56134 4.04155 8.1226 3.41102C9.68386 2.78049 11.4018 2.61552 13.0592 2.93696C14.7167 3.2584 16.2391 4.05182 17.434 5.21688C18.629 6.38194 19.4427 7.86632 19.7724 9.48231C20.1021 11.0983 19.9329 12.7733 19.2862 14.2955C18.6395 15.8178 17.5444 17.1188 16.1393 18.0342C14.7342 18.9496 13.0822 19.4382 11.3923 19.4382C9.12627 19.4382 6.953 18.5605 5.35064 16.9982C3.74829 15.4359 2.84809 13.317 2.84809 11.1075Z" fill="#1C0000"/>
</svg>
